<svg xmlns="http://www.w3.org/2000/svg" width="512" height="512" viewBox="0 0 512 512">
<defs><radialGradient id="cbody" cx="36%" cy="28%" r="80%"><stop offset="0" stop-color="#9BE2FF"/><stop offset=".45" stop-color="#3AAEF5"/><stop offset="1" stop-color="#1563C7"/></radialGradient><filter id="csh" x="-20%" y="-20%" width="140%" height="150%"><feDropShadow dx="0" dy="10" stdDeviation="10" flood-color="#0b2545" flood-opacity="0.22"/></filter>
<linearGradient id="csky" x1="0" y1="0" x2="0" y2="1"><stop offset="0" stop-color="#DDF2FF"/><stop offset="1" stop-color="#F6FBFF"/></linearGradient></defs>
<rect width="512" height="512" rx="120" fill="url(#csky)"/>
<g fill="#fff"><ellipse cx="96" cy="420" rx="60" ry="22"/><ellipse cx="140" cy="404" rx="40" ry="26"/><ellipse cx="420" cy="440" rx="54" ry="18"/></g>
<g filter="url(#csh)">
<g fill="#fff" stroke="#0E3A6B" stroke-width="9" stroke-linejoin="round">
<path d="M150 270 C96 250 52 206 40 150 C78 168 110 176 150 214 C112 176 96 140 98 108 C130 140 156 172 172 226Z"/>
<path d="M362 270 C416 250 460 206 472 150 C434 168 402 176 362 214 C400 176 416 140 414 108 C382 140 356 172 340 226Z"/>
</g>
<path d="M194 220 C184 84 328 84 318 220" fill="none" stroke="#0E3A6B" stroke-width="60" stroke-linecap="round"/>
<path d="M194 220 C184 84 328 84 318 220" fill="none" stroke="#3AAEF5" stroke-width="40" stroke-linecap="round"/>
<path d="M256 182 C352 182 386 240 386 302 C386 360 362 398 332 408 L180 408 C150 398 126 360 126 302 C126 240 160 182 256 182Z" fill="url(#cbody)" stroke="#0E3A6B" stroke-width="10"/>
</g>
<ellipse cx="200" cy="244" rx="40" ry="20" fill="#fff" opacity=".4" transform="rotate(-25 200 244)"/>
<circle cx="222" cy="300" r="13" fill="#0E3A6B"/><circle cx="290" cy="300" r="13" fill="#0E3A6B"/>
<circle cx="226" cy="296" r="4.5" fill="#fff"/><circle cx="294" cy="296" r="4.5" fill="#fff"/>
<path d="M236 334 Q256 352 276 334" fill="none" stroke="#0E3A6B" stroke-width="8" stroke-linecap="round"/>
</svg>
