<svg xmlns="http://www.w3.org/2000/svg" width="1560" height="1560" viewBox="0 0 1560 1560">
<rect width="1560" height="1560" fill="#f6f7f9"/>
<text x="40" y="78" font-family="Helvetica Neue, Arial" font-weight="700" font-size="40" fill="#222">ongram.fun logo samples, round 2</text>
<text x="40" y="116" font-family="Helvetica Neue, Arial" font-size="21" fill="#707579">No letters. Each shown big, in the site header, and on night mode.</text>
<rect x="40" y="160" width="480" height="660" rx="28" fill="#fff" stroke="#e7eaed" stroke-width="2"/>
<g transform="translate(130 196) scale(0.5859375)"><defs><radialGradient id="s0abody" cx="36%" cy="28%" r="80%"><stop offset="0" stop-color="#9BE2FF"/><stop offset=".45" stop-color="#3AAEF5"/><stop offset="1" stop-color="#1563C7"/></radialGradient><filter id="s0ash" x="-20%" y="-20%" width="140%" height="150%"><feDropShadow dx="0" dy="10" stdDeviation="12" flood-color="#0b2545" flood-opacity="0.28"/></filter>
<radialGradient id="s0aorb" cx="40%" cy="35%" r="70%"><stop offset="0" stop-color="#FFF3B0"/><stop offset="1" stop-color="#FFB800"/></radialGradient></defs>
<g filter="url(#s0ash)">
<path d="M258 92 C262 58 282 38 312 30" fill="none" stroke="#fff" stroke-width="34" stroke-linecap="round"/>
<circle cx="322" cy="30" r="30" fill="#fff"/>
<path d="M256 78 C376 78 450 158 450 272 C450 384 370 446 256 446 C142 446 62 384 62 272 C62 158 136 78 256 78Z" fill="#fff" stroke="#fff" stroke-width="36" stroke-linejoin="round"/>
</g>
<path d="M258 92 C262 58 282 38 312 30" fill="none" stroke="#0E3A6B" stroke-width="10" stroke-linecap="round"/>
<circle cx="322" cy="30" r="20" fill="url(#s0aorb)" stroke="#0E3A6B" stroke-width="8"/>
<path d="M256 78 C376 78 450 158 450 272 C450 384 370 446 256 446 C142 446 62 384 62 272 C62 158 136 78 256 78Z" fill="url(#s0abody)" stroke="#0E3A6B" stroke-width="11"/>
<ellipse cx="170" cy="150" rx="58" ry="28" fill="#fff" opacity=".38" transform="rotate(-28 170 150)"/>
<ellipse cx="190" cy="252" rx="46" ry="56" fill="#fff" stroke="#0E3A6B" stroke-width="9"/>
<ellipse cx="322" cy="252" rx="46" ry="56" fill="#fff" stroke="#0E3A6B" stroke-width="9"/>
<circle cx="204" cy="240" r="26" fill="#0E3A6B"/><circle cx="336" cy="240" r="26" fill="#0E3A6B"/>
<circle cx="214" cy="229" r="9" fill="#fff"/><circle cx="346" cy="229" r="9" fill="#fff"/>
<ellipse cx="146" cy="330" rx="30" ry="18" fill="#FF7A9C" opacity=".55"/><ellipse cx="366" cy="330" rx="30" ry="18" fill="#FF7A9C" opacity=".55"/>
<path d="M214 324 Q256 372 302 322 Q258 344 214 324Z" fill="#0E3A6B" stroke="#0E3A6B" stroke-width="8" stroke-linejoin="round"/>
<path d="M246 346 Q262 340 276 346 Q266 356 252 353Z" fill="#FF6B7D"/></g>
<text x="72" y="552" font-family="Helvetica Neue, Arial" font-weight="700" font-size="28" fill="#222">1 · Blip, the mascot</text>
<text x="72" y="590" font-family="Helvetica Neue, Arial" font-size="19" fill="#707579"><tspan x="72" dy="0">A squishy sticker character with a launch</tspan><tspan x="72" dy="26">antenna. Telegram-sticker energy; can have a</tspan><tspan x="72" dy="26">whole sticker pack.</tspan></text>
<rect x="64" y="700" width="432" height="92" rx="18" fill="#f1f3f5"/>
<g transform="translate(82 718) scale(0.109375)"><defs><radialGradient id="s0bbody" cx="36%" cy="28%" r="80%"><stop offset="0" stop-color="#9BE2FF"/><stop offset=".45" stop-color="#3AAEF5"/><stop offset="1" stop-color="#1563C7"/></radialGradient><filter id="s0bsh" x="-20%" y="-20%" width="140%" height="150%"><feDropShadow dx="0" dy="10" stdDeviation="12" flood-color="#0b2545" flood-opacity="0.28"/></filter>
<radialGradient id="s0borb" cx="40%" cy="35%" r="70%"><stop offset="0" stop-color="#FFF3B0"/><stop offset="1" stop-color="#FFB800"/></radialGradient></defs>
<g filter="url(#s0bsh)">
<path d="M258 92 C262 58 282 38 312 30" fill="none" stroke="#fff" stroke-width="34" stroke-linecap="round"/>
<circle cx="322" cy="30" r="30" fill="#fff"/>
<path d="M256 78 C376 78 450 158 450 272 C450 384 370 446 256 446 C142 446 62 384 62 272 C62 158 136 78 256 78Z" fill="#fff" stroke="#fff" stroke-width="36" stroke-linejoin="round"/>
</g>
<path d="M258 92 C262 58 282 38 312 30" fill="none" stroke="#0E3A6B" stroke-width="10" stroke-linecap="round"/>
<circle cx="322" cy="30" r="20" fill="url(#s0borb)" stroke="#0E3A6B" stroke-width="8"/>
<path d="M256 78 C376 78 450 158 450 272 C450 384 370 446 256 446 C142 446 62 384 62 272 C62 158 136 78 256 78Z" fill="url(#s0bbody)" stroke="#0E3A6B" stroke-width="11"/>
<ellipse cx="170" cy="150" rx="58" ry="28" fill="#fff" opacity=".38" transform="rotate(-28 170 150)"/>
<ellipse cx="190" cy="252" rx="46" ry="56" fill="#fff" stroke="#0E3A6B" stroke-width="9"/>
<ellipse cx="322" cy="252" rx="46" ry="56" fill="#fff" stroke="#0E3A6B" stroke-width="9"/>
<circle cx="204" cy="240" r="26" fill="#0E3A6B"/><circle cx="336" cy="240" r="26" fill="#0E3A6B"/>
<circle cx="214" cy="229" r="9" fill="#fff"/><circle cx="346" cy="229" r="9" fill="#fff"/>
<ellipse cx="146" cy="330" rx="30" ry="18" fill="#FF7A9C" opacity=".55"/><ellipse cx="366" cy="330" rx="30" ry="18" fill="#FF7A9C" opacity=".55"/>
<path d="M214 324 Q256 372 302 322 Q258 344 214 324Z" fill="#0E3A6B" stroke="#0E3A6B" stroke-width="8" stroke-linejoin="round"/>
<path d="M246 346 Q262 340 276 346 Q266 356 252 353Z" fill="#FF6B7D"/></g>
<text x="152" y="757" font-family="Helvetica Neue, Arial" font-weight="700" font-size="30" fill="#222">ongram<tspan fill="#707579">.fun</tspan></text>
<rect x="370" y="725" width="108" height="42" rx="21" fill="#17212B"/>
<g transform="translate(375 729) scale(0.06640625)"><defs><radialGradient id="s0cbody" cx="36%" cy="28%" r="80%"><stop offset="0" stop-color="#9BE2FF"/><stop offset=".45" stop-color="#3AAEF5"/><stop offset="1" stop-color="#1563C7"/></radialGradient><filter id="s0csh" x="-20%" y="-20%" width="140%" height="150%"><feDropShadow dx="0" dy="10" stdDeviation="12" flood-color="#0b2545" flood-opacity="0.28"/></filter>
<radialGradient id="s0corb" cx="40%" cy="35%" r="70%"><stop offset="0" stop-color="#FFF3B0"/><stop offset="1" stop-color="#FFB800"/></radialGradient></defs>
<g filter="url(#s0csh)">
<path d="M258 92 C262 58 282 38 312 30" fill="none" stroke="#fff" stroke-width="34" stroke-linecap="round"/>
<circle cx="322" cy="30" r="30" fill="#fff"/>
<path d="M256 78 C376 78 450 158 450 272 C450 384 370 446 256 446 C142 446 62 384 62 272 C62 158 136 78 256 78Z" fill="#fff" stroke="#fff" stroke-width="36" stroke-linejoin="round"/>
</g>
<path d="M258 92 C262 58 282 38 312 30" fill="none" stroke="#0E3A6B" stroke-width="10" stroke-linecap="round"/>
<circle cx="322" cy="30" r="20" fill="url(#s0corb)" stroke="#0E3A6B" stroke-width="8"/>
<path d="M256 78 C376 78 450 158 450 272 C450 384 370 446 256 446 C142 446 62 384 62 272 C62 158 136 78 256 78Z" fill="url(#s0cbody)" stroke="#0E3A6B" stroke-width="11"/>
<ellipse cx="170" cy="150" rx="58" ry="28" fill="#fff" opacity=".38" transform="rotate(-28 170 150)"/>
<ellipse cx="190" cy="252" rx="46" ry="56" fill="#fff" stroke="#0E3A6B" stroke-width="9"/>
<ellipse cx="322" cy="252" rx="46" ry="56" fill="#fff" stroke="#0E3A6B" stroke-width="9"/>
<circle cx="204" cy="240" r="26" fill="#0E3A6B"/><circle cx="336" cy="240" r="26" fill="#0E3A6B"/>
<circle cx="214" cy="229" r="9" fill="#fff"/><circle cx="346" cy="229" r="9" fill="#fff"/>
<ellipse cx="146" cy="330" rx="30" ry="18" fill="#FF7A9C" opacity=".55"/><ellipse cx="366" cy="330" rx="30" ry="18" fill="#FF7A9C" opacity=".55"/>
<path d="M214 324 Q256 372 302 322 Q258 344 214 324Z" fill="#0E3A6B" stroke="#0E3A6B" stroke-width="8" stroke-linejoin="round"/>
<path d="M246 346 Q262 340 276 346 Q266 356 252 353Z" fill="#FF6B7D"/></g>
<text x="415" y="753" font-family="Helvetica Neue, Arial" font-weight="700" font-size="17" fill="#e9edf1">night</text><rect x="540" y="160" width="480" height="660" rx="28" fill="#fff" stroke="#e7eaed" stroke-width="2"/>
<g transform="translate(630 196) scale(0.5859375)"><defs><linearGradient id="s1abg" x1="0" y1="0" x2="1" y2="1"><stop offset="0" stop-color="#4CC3FA"/><stop offset="1" stop-color="#1668D2"/></linearGradient><filter id="s1ash" x="-20%" y="-20%" width="140%" height="150%"><feDropShadow dx="0" dy="8" stdDeviation="10" flood-color="#0b2545" flood-opacity="0.25"/></filter></defs>
<rect width="512" height="512" rx="120" fill="url(#s1abg)"/>
<ellipse cx="150" cy="96" rx="96" ry="40" fill="#fff" opacity=".16" transform="rotate(-20 150 96)"/>
<g filter="url(#s1ash)">
<ellipse cx="180" cy="270" rx="78" ry="98" fill="#fff"/><ellipse cx="332" cy="270" rx="78" ry="98" fill="#fff"/>
</g>
<circle cx="208" cy="236" r="44" fill="#0E3A6B"/><circle cx="360" cy="236" r="44" fill="#0E3A6B"/>
<circle cx="224" cy="218" r="15" fill="#fff"/><circle cx="376" cy="218" r="15" fill="#fff"/>
<circle cx="196" cy="258" r="6" fill="#fff" opacity=".8"/><circle cx="348" cy="258" r="6" fill="#fff" opacity=".8"/></g>
<text x="572" y="552" font-family="Helvetica Neue, Arial" font-weight="700" font-size="28" fill="#222">2 · Peek</text>
<text x="572" y="590" font-family="Helvetica Neue, Arial" font-size="19" fill="#707579"><tspan x="572" dy="0">Just Blip's eyes. Reads instantly at favicon</tspan><tspan x="572" dy="26">size and keeps the character.</tspan></text>
<rect x="564" y="700" width="432" height="92" rx="18" fill="#f1f3f5"/>
<g transform="translate(582 718) scale(0.109375)"><defs><linearGradient id="s1bbg" x1="0" y1="0" x2="1" y2="1"><stop offset="0" stop-color="#4CC3FA"/><stop offset="1" stop-color="#1668D2"/></linearGradient><filter id="s1bsh" x="-20%" y="-20%" width="140%" height="150%"><feDropShadow dx="0" dy="8" stdDeviation="10" flood-color="#0b2545" flood-opacity="0.25"/></filter></defs>
<rect width="512" height="512" rx="120" fill="url(#s1bbg)"/>
<ellipse cx="150" cy="96" rx="96" ry="40" fill="#fff" opacity=".16" transform="rotate(-20 150 96)"/>
<g filter="url(#s1bsh)">
<ellipse cx="180" cy="270" rx="78" ry="98" fill="#fff"/><ellipse cx="332" cy="270" rx="78" ry="98" fill="#fff"/>
</g>
<circle cx="208" cy="236" r="44" fill="#0E3A6B"/><circle cx="360" cy="236" r="44" fill="#0E3A6B"/>
<circle cx="224" cy="218" r="15" fill="#fff"/><circle cx="376" cy="218" r="15" fill="#fff"/>
<circle cx="196" cy="258" r="6" fill="#fff" opacity=".8"/><circle cx="348" cy="258" r="6" fill="#fff" opacity=".8"/></g>
<text x="652" y="757" font-family="Helvetica Neue, Arial" font-weight="700" font-size="30" fill="#222">ongram<tspan fill="#707579">.fun</tspan></text>
<rect x="870" y="725" width="108" height="42" rx="21" fill="#17212B"/>
<g transform="translate(875 729) scale(0.06640625)"><defs><linearGradient id="s1cbg" x1="0" y1="0" x2="1" y2="1"><stop offset="0" stop-color="#4CC3FA"/><stop offset="1" stop-color="#1668D2"/></linearGradient><filter id="s1csh" x="-20%" y="-20%" width="140%" height="150%"><feDropShadow dx="0" dy="8" stdDeviation="10" flood-color="#0b2545" flood-opacity="0.25"/></filter></defs>
<rect width="512" height="512" rx="120" fill="url(#s1cbg)"/>
<ellipse cx="150" cy="96" rx="96" ry="40" fill="#fff" opacity=".16" transform="rotate(-20 150 96)"/>
<g filter="url(#s1csh)">
<ellipse cx="180" cy="270" rx="78" ry="98" fill="#fff"/><ellipse cx="332" cy="270" rx="78" ry="98" fill="#fff"/>
</g>
<circle cx="208" cy="236" r="44" fill="#0E3A6B"/><circle cx="360" cy="236" r="44" fill="#0E3A6B"/>
<circle cx="224" cy="218" r="15" fill="#fff"/><circle cx="376" cy="218" r="15" fill="#fff"/>
<circle cx="196" cy="258" r="6" fill="#fff" opacity=".8"/><circle cx="348" cy="258" r="6" fill="#fff" opacity=".8"/></g>
<text x="915" y="753" font-family="Helvetica Neue, Arial" font-weight="700" font-size="17" fill="#e9edf1">night</text><rect x="1040" y="160" width="480" height="660" rx="28" fill="#fff" stroke="#e7eaed" stroke-width="2"/>
<g transform="translate(1130 196) scale(0.5859375)"><defs><radialGradient id="s2abody" cx="36%" cy="28%" r="80%"><stop offset="0" stop-color="#9BE2FF"/><stop offset=".45" stop-color="#3AAEF5"/><stop offset="1" stop-color="#1563C7"/></radialGradient>
<linearGradient id="s2aring" x1="0" y1="0" x2="1" y2="0"><stop offset="0" stop-color="#FFE27A"/><stop offset=".5" stop-color="#FFB800"/><stop offset="1" stop-color="#FF8A00"/></linearGradient>
<radialGradient id="s2aglow" cx="50%" cy="50%" r="50%"><stop offset="0" stop-color="#5EB0F3" stop-opacity=".35"/><stop offset="1" stop-color="#5EB0F3" stop-opacity="0"/></radialGradient></defs>
<rect width="512" height="512" rx="120" fill="#17212B"/>
<circle cx="256" cy="262" r="210" fill="url(#s2aglow)"/>
<circle cx="88" cy="110" r="4" fill="#fff" opacity=".7"/><circle cx="430" cy="420" r="5" fill="#fff" opacity=".6"/><circle cx="110" cy="410" r="3" fill="#fff" opacity=".5"/><circle cx="400" cy="96" r="3" fill="#fff" opacity=".6"/>
<g transform="rotate(-22 256 262)">
<path d="M66 262 A190 56 0 0 1 446 262" fill="none" stroke="url(#s2aring)" stroke-width="26" stroke-linecap="round" opacity=".9"/>
<circle cx="256" cy="262" r="128" fill="url(#s2abody)"/>
<path d="M162 210 A128 128 0 0 1 256 134" fill="none" stroke="#fff" stroke-width="14" stroke-linecap="round" opacity=".45"/>
<path d="M446 262 A190 56 0 0 1 66 262" fill="none" stroke="url(#s2aring)" stroke-width="26" stroke-linecap="round"/>
</g>
<path d="M400 116 Q407.48 142.52 434 150 Q407.48 157.48 400 184 Q392.52 157.48 366 150 Q392.52 142.52 400 116Z" fill="#fff"/><path d="M120 158 Q123.96 172.04 138 176 Q123.96 179.96 120 194 Q116.04 179.96 102 176 Q116.04 172.04 120 158Z" fill="#FFD84D"/></g>
<text x="1072" y="552" font-family="Helvetica Neue, Arial" font-weight="700" font-size="28" fill="#222">3 · To the moon</text>
<text x="1072" y="590" font-family="Helvetica Neue, Arial" font-size="19" fill="#707579"><tspan x="1072" dy="0">A blue planet coin with a gold ring: every</tspan><tspan x="1072" dy="26">coin's destination.</tspan></text>
<rect x="1064" y="700" width="432" height="92" rx="18" fill="#f1f3f5"/>
<g transform="translate(1082 718) scale(0.109375)"><defs><radialGradient id="s2bbody" cx="36%" cy="28%" r="80%"><stop offset="0" stop-color="#9BE2FF"/><stop offset=".45" stop-color="#3AAEF5"/><stop offset="1" stop-color="#1563C7"/></radialGradient>
<linearGradient id="s2bring" x1="0" y1="0" x2="1" y2="0"><stop offset="0" stop-color="#FFE27A"/><stop offset=".5" stop-color="#FFB800"/><stop offset="1" stop-color="#FF8A00"/></linearGradient>
<radialGradient id="s2bglow" cx="50%" cy="50%" r="50%"><stop offset="0" stop-color="#5EB0F3" stop-opacity=".35"/><stop offset="1" stop-color="#5EB0F3" stop-opacity="0"/></radialGradient></defs>
<rect width="512" height="512" rx="120" fill="#17212B"/>
<circle cx="256" cy="262" r="210" fill="url(#s2bglow)"/>
<circle cx="88" cy="110" r="4" fill="#fff" opacity=".7"/><circle cx="430" cy="420" r="5" fill="#fff" opacity=".6"/><circle cx="110" cy="410" r="3" fill="#fff" opacity=".5"/><circle cx="400" cy="96" r="3" fill="#fff" opacity=".6"/>
<g transform="rotate(-22 256 262)">
<path d="M66 262 A190 56 0 0 1 446 262" fill="none" stroke="url(#s2bring)" stroke-width="26" stroke-linecap="round" opacity=".9"/>
<circle cx="256" cy="262" r="128" fill="url(#s2bbody)"/>
<path d="M162 210 A128 128 0 0 1 256 134" fill="none" stroke="#fff" stroke-width="14" stroke-linecap="round" opacity=".45"/>
<path d="M446 262 A190 56 0 0 1 66 262" fill="none" stroke="url(#s2bring)" stroke-width="26" stroke-linecap="round"/>
</g>
<path d="M400 116 Q407.48 142.52 434 150 Q407.48 157.48 400 184 Q392.52 157.48 366 150 Q392.52 142.52 400 116Z" fill="#fff"/><path d="M120 158 Q123.96 172.04 138 176 Q123.96 179.96 120 194 Q116.04 179.96 102 176 Q116.04 172.04 120 158Z" fill="#FFD84D"/></g>
<text x="1152" y="757" font-family="Helvetica Neue, Arial" font-weight="700" font-size="30" fill="#222">ongram<tspan fill="#707579">.fun</tspan></text>
<rect x="1370" y="725" width="108" height="42" rx="21" fill="#17212B"/>
<g transform="translate(1375 729) scale(0.06640625)"><defs><radialGradient id="s2cbody" cx="36%" cy="28%" r="80%"><stop offset="0" stop-color="#9BE2FF"/><stop offset=".45" stop-color="#3AAEF5"/><stop offset="1" stop-color="#1563C7"/></radialGradient>
<linearGradient id="s2cring" x1="0" y1="0" x2="1" y2="0"><stop offset="0" stop-color="#FFE27A"/><stop offset=".5" stop-color="#FFB800"/><stop offset="1" stop-color="#FF8A00"/></linearGradient>
<radialGradient id="s2cglow" cx="50%" cy="50%" r="50%"><stop offset="0" stop-color="#5EB0F3" stop-opacity=".35"/><stop offset="1" stop-color="#5EB0F3" stop-opacity="0"/></radialGradient></defs>
<rect width="512" height="512" rx="120" fill="#17212B"/>
<circle cx="256" cy="262" r="210" fill="url(#s2cglow)"/>
<circle cx="88" cy="110" r="4" fill="#fff" opacity=".7"/><circle cx="430" cy="420" r="5" fill="#fff" opacity=".6"/><circle cx="110" cy="410" r="3" fill="#fff" opacity=".5"/><circle cx="400" cy="96" r="3" fill="#fff" opacity=".6"/>
<g transform="rotate(-22 256 262)">
<path d="M66 262 A190 56 0 0 1 446 262" fill="none" stroke="url(#s2cring)" stroke-width="26" stroke-linecap="round" opacity=".9"/>
<circle cx="256" cy="262" r="128" fill="url(#s2cbody)"/>
<path d="M162 210 A128 128 0 0 1 256 134" fill="none" stroke="#fff" stroke-width="14" stroke-linecap="round" opacity=".45"/>
<path d="M446 262 A190 56 0 0 1 66 262" fill="none" stroke="url(#s2cring)" stroke-width="26" stroke-linecap="round"/>
</g>
<path d="M400 116 Q407.48 142.52 434 150 Q407.48 157.48 400 184 Q392.52 157.48 366 150 Q392.52 142.52 400 116Z" fill="#fff"/><path d="M120 158 Q123.96 172.04 138 176 Q123.96 179.96 120 194 Q116.04 179.96 102 176 Q116.04 172.04 120 158Z" fill="#FFD84D"/></g>
<text x="1415" y="753" font-family="Helvetica Neue, Arial" font-weight="700" font-size="17" fill="#e9edf1">night</text><rect x="40" y="850" width="480" height="660" rx="28" fill="#fff" stroke="#e7eaed" stroke-width="2"/>
<g transform="translate(130 886) scale(0.5859375)"><defs><linearGradient id="s3ar" x1="0" y1="0" x2="1" y2="1"><stop offset="0" stop-color="#7AD7FF"/><stop offset=".5" stop-color="#2A9EF4"/><stop offset="1" stop-color="#1257B8"/></linearGradient>
<linearGradient id="s3abg" x1="0" y1="0" x2="0" y2="1"><stop offset="0" stop-color="#1E2C3A"/><stop offset="1" stop-color="#121A22"/></linearGradient></defs>
<rect width="512" height="512" rx="120" fill="url(#s3abg)"/>
<path d="M256 96 A160 160 0 1 1 255.9 96 Z M256 176 A80 80 0 1 0 256.1 176 Z" fill="url(#s3ar)" fill-rule="evenodd"/>
<path d="M150 170 A124 124 0 0 1 250 118" fill="none" stroke="#fff" stroke-width="12" stroke-linecap="round" opacity=".5"/>
<path d="M372 76 Q388.28 133.72 446 150 Q388.28 166.28 372 224 Q355.72 166.28 298 150 Q355.72 133.72 372 76Z" fill="#fff"/><path d="M372 120 Q378.6 143.4 402 150 Q378.6 156.6 372 180 Q365.4 156.6 342 150 Q365.4 143.4 372 120Z" fill="#FFD84D"/></g>
<text x="72" y="1242" font-family="Helvetica Neue, Arial" font-weight="700" font-size="28" fill="#222">4 · Spark ring</text>
<text x="72" y="1280" font-family="Helvetica Neue, Arial" font-size="19" fill="#707579"><tspan x="72" dy="0">A thick coin ring with a glint: an “o” for</tspan><tspan x="72" dy="26">ongram, clean and modern.</tspan></text>
<rect x="64" y="1390" width="432" height="92" rx="18" fill="#f1f3f5"/>
<g transform="translate(82 1408) scale(0.109375)"><defs><linearGradient id="s3br" x1="0" y1="0" x2="1" y2="1"><stop offset="0" stop-color="#7AD7FF"/><stop offset=".5" stop-color="#2A9EF4"/><stop offset="1" stop-color="#1257B8"/></linearGradient>
<linearGradient id="s3bbg" x1="0" y1="0" x2="0" y2="1"><stop offset="0" stop-color="#1E2C3A"/><stop offset="1" stop-color="#121A22"/></linearGradient></defs>
<rect width="512" height="512" rx="120" fill="url(#s3bbg)"/>
<path d="M256 96 A160 160 0 1 1 255.9 96 Z M256 176 A80 80 0 1 0 256.1 176 Z" fill="url(#s3br)" fill-rule="evenodd"/>
<path d="M150 170 A124 124 0 0 1 250 118" fill="none" stroke="#fff" stroke-width="12" stroke-linecap="round" opacity=".5"/>
<path d="M372 76 Q388.28 133.72 446 150 Q388.28 166.28 372 224 Q355.72 166.28 298 150 Q355.72 133.72 372 76Z" fill="#fff"/><path d="M372 120 Q378.6 143.4 402 150 Q378.6 156.6 372 180 Q365.4 156.6 342 150 Q365.4 143.4 372 120Z" fill="#FFD84D"/></g>
<text x="152" y="1447" font-family="Helvetica Neue, Arial" font-weight="700" font-size="30" fill="#222">ongram<tspan fill="#707579">.fun</tspan></text>
<rect x="370" y="1415" width="108" height="42" rx="21" fill="#17212B"/>
<g transform="translate(375 1419) scale(0.06640625)"><defs><linearGradient id="s3cr" x1="0" y1="0" x2="1" y2="1"><stop offset="0" stop-color="#7AD7FF"/><stop offset=".5" stop-color="#2A9EF4"/><stop offset="1" stop-color="#1257B8"/></linearGradient>
<linearGradient id="s3cbg" x1="0" y1="0" x2="0" y2="1"><stop offset="0" stop-color="#1E2C3A"/><stop offset="1" stop-color="#121A22"/></linearGradient></defs>
<rect width="512" height="512" rx="120" fill="url(#s3cbg)"/>
<path d="M256 96 A160 160 0 1 1 255.9 96 Z M256 176 A80 80 0 1 0 256.1 176 Z" fill="url(#s3cr)" fill-rule="evenodd"/>
<path d="M150 170 A124 124 0 0 1 250 118" fill="none" stroke="#fff" stroke-width="12" stroke-linecap="round" opacity=".5"/>
<path d="M372 76 Q388.28 133.72 446 150 Q388.28 166.28 372 224 Q355.72 166.28 298 150 Q355.72 133.72 372 76Z" fill="#fff"/><path d="M372 120 Q378.6 143.4 402 150 Q378.6 156.6 372 180 Q365.4 156.6 342 150 Q365.4 143.4 372 120Z" fill="#FFD84D"/></g>
<text x="415" y="1443" font-family="Helvetica Neue, Arial" font-weight="700" font-size="17" fill="#e9edf1">night</text><rect x="540" y="850" width="480" height="660" rx="28" fill="#fff" stroke="#e7eaed" stroke-width="2"/>
<g transform="translate(630 886) scale(0.5859375)"><defs><radialGradient id="s4abody" cx="36%" cy="28%" r="80%"><stop offset="0" stop-color="#9BE2FF"/><stop offset=".45" stop-color="#3AAEF5"/><stop offset="1" stop-color="#1563C7"/></radialGradient><filter id="s4ash" x="-20%" y="-20%" width="140%" height="150%"><feDropShadow dx="0" dy="10" stdDeviation="10" flood-color="#0b2545" flood-opacity="0.22"/></filter>
<linearGradient id="s4asky" x1="0" y1="0" x2="0" y2="1"><stop offset="0" stop-color="#DDF2FF"/><stop offset="1" stop-color="#F6FBFF"/></linearGradient></defs>
<rect width="512" height="512" rx="120" fill="url(#s4asky)"/>
<g fill="#fff"><ellipse cx="96" cy="420" rx="60" ry="22"/><ellipse cx="140" cy="404" rx="40" ry="26"/><ellipse cx="420" cy="440" rx="54" ry="18"/></g>
<g filter="url(#s4ash)">
<g fill="#fff" stroke="#0E3A6B" stroke-width="9" stroke-linejoin="round">
<path d="M150 270 C96 250 52 206 40 150 C78 168 110 176 150 214 C112 176 96 140 98 108 C130 140 156 172 172 226Z"/>
<path d="M362 270 C416 250 460 206 472 150 C434 168 402 176 362 214 C400 176 416 140 414 108 C382 140 356 172 340 226Z"/>
</g>
<path d="M194 220 C184 84 328 84 318 220" fill="none" stroke="#0E3A6B" stroke-width="60" stroke-linecap="round"/>
<path d="M194 220 C184 84 328 84 318 220" fill="none" stroke="#3AAEF5" stroke-width="40" stroke-linecap="round"/>
<path d="M256 182 C352 182 386 240 386 302 C386 360 362 398 332 408 L180 408 C150 398 126 360 126 302 C126 240 160 182 256 182Z" fill="url(#s4abody)" stroke="#0E3A6B" stroke-width="10"/>
</g>
<ellipse cx="200" cy="244" rx="40" ry="20" fill="#fff" opacity=".4" transform="rotate(-25 200 244)"/>
<circle cx="222" cy="300" r="13" fill="#0E3A6B"/><circle cx="290" cy="300" r="13" fill="#0E3A6B"/>
<circle cx="226" cy="296" r="4.5" fill="#fff"/><circle cx="294" cy="296" r="4.5" fill="#fff"/>
<path d="M236 334 Q256 352 276 334" fill="none" stroke="#0E3A6B" stroke-width="8" stroke-linecap="round"/></g>
<text x="572" y="1242" font-family="Helvetica Neue, Arial" font-weight="700" font-size="28" fill="#222">5 · Featherweight</text>
<text x="572" y="1280" font-family="Helvetica Neue, Arial" font-size="19" fill="#707579"><tspan x="572" dy="0">A gram is a weight. Ours has wings. Witty,</tspan><tspan x="572" dy="26">and nobody else has it.</tspan></text>
<rect x="564" y="1390" width="432" height="92" rx="18" fill="#f1f3f5"/>
<g transform="translate(582 1408) scale(0.109375)"><defs><radialGradient id="s4bbody" cx="36%" cy="28%" r="80%"><stop offset="0" stop-color="#9BE2FF"/><stop offset=".45" stop-color="#3AAEF5"/><stop offset="1" stop-color="#1563C7"/></radialGradient><filter id="s4bsh" x="-20%" y="-20%" width="140%" height="150%"><feDropShadow dx="0" dy="10" stdDeviation="10" flood-color="#0b2545" flood-opacity="0.22"/></filter>
<linearGradient id="s4bsky" x1="0" y1="0" x2="0" y2="1"><stop offset="0" stop-color="#DDF2FF"/><stop offset="1" stop-color="#F6FBFF"/></linearGradient></defs>
<rect width="512" height="512" rx="120" fill="url(#s4bsky)"/>
<g fill="#fff"><ellipse cx="96" cy="420" rx="60" ry="22"/><ellipse cx="140" cy="404" rx="40" ry="26"/><ellipse cx="420" cy="440" rx="54" ry="18"/></g>
<g filter="url(#s4bsh)">
<g fill="#fff" stroke="#0E3A6B" stroke-width="9" stroke-linejoin="round">
<path d="M150 270 C96 250 52 206 40 150 C78 168 110 176 150 214 C112 176 96 140 98 108 C130 140 156 172 172 226Z"/>
<path d="M362 270 C416 250 460 206 472 150 C434 168 402 176 362 214 C400 176 416 140 414 108 C382 140 356 172 340 226Z"/>
</g>
<path d="M194 220 C184 84 328 84 318 220" fill="none" stroke="#0E3A6B" stroke-width="60" stroke-linecap="round"/>
<path d="M194 220 C184 84 328 84 318 220" fill="none" stroke="#3AAEF5" stroke-width="40" stroke-linecap="round"/>
<path d="M256 182 C352 182 386 240 386 302 C386 360 362 398 332 408 L180 408 C150 398 126 360 126 302 C126 240 160 182 256 182Z" fill="url(#s4bbody)" stroke="#0E3A6B" stroke-width="10"/>
</g>
<ellipse cx="200" cy="244" rx="40" ry="20" fill="#fff" opacity=".4" transform="rotate(-25 200 244)"/>
<circle cx="222" cy="300" r="13" fill="#0E3A6B"/><circle cx="290" cy="300" r="13" fill="#0E3A6B"/>
<circle cx="226" cy="296" r="4.5" fill="#fff"/><circle cx="294" cy="296" r="4.5" fill="#fff"/>
<path d="M236 334 Q256 352 276 334" fill="none" stroke="#0E3A6B" stroke-width="8" stroke-linecap="round"/></g>
<text x="652" y="1447" font-family="Helvetica Neue, Arial" font-weight="700" font-size="30" fill="#222">ongram<tspan fill="#707579">.fun</tspan></text>
<rect x="870" y="1415" width="108" height="42" rx="21" fill="#17212B"/>
<g transform="translate(875 1419) scale(0.06640625)"><defs><radialGradient id="s4cbody" cx="36%" cy="28%" r="80%"><stop offset="0" stop-color="#9BE2FF"/><stop offset=".45" stop-color="#3AAEF5"/><stop offset="1" stop-color="#1563C7"/></radialGradient><filter id="s4csh" x="-20%" y="-20%" width="140%" height="150%"><feDropShadow dx="0" dy="10" stdDeviation="10" flood-color="#0b2545" flood-opacity="0.22"/></filter>
<linearGradient id="s4csky" x1="0" y1="0" x2="0" y2="1"><stop offset="0" stop-color="#DDF2FF"/><stop offset="1" stop-color="#F6FBFF"/></linearGradient></defs>
<rect width="512" height="512" rx="120" fill="url(#s4csky)"/>
<g fill="#fff"><ellipse cx="96" cy="420" rx="60" ry="22"/><ellipse cx="140" cy="404" rx="40" ry="26"/><ellipse cx="420" cy="440" rx="54" ry="18"/></g>
<g filter="url(#s4csh)">
<g fill="#fff" stroke="#0E3A6B" stroke-width="9" stroke-linejoin="round">
<path d="M150 270 C96 250 52 206 40 150 C78 168 110 176 150 214 C112 176 96 140 98 108 C130 140 156 172 172 226Z"/>
<path d="M362 270 C416 250 460 206 472 150 C434 168 402 176 362 214 C400 176 416 140 414 108 C382 140 356 172 340 226Z"/>
</g>
<path d="M194 220 C184 84 328 84 318 220" fill="none" stroke="#0E3A6B" stroke-width="60" stroke-linecap="round"/>
<path d="M194 220 C184 84 328 84 318 220" fill="none" stroke="#3AAEF5" stroke-width="40" stroke-linecap="round"/>
<path d="M256 182 C352 182 386 240 386 302 C386 360 362 398 332 408 L180 408 C150 398 126 360 126 302 C126 240 160 182 256 182Z" fill="url(#s4cbody)" stroke="#0E3A6B" stroke-width="10"/>
</g>
<ellipse cx="200" cy="244" rx="40" ry="20" fill="#fff" opacity=".4" transform="rotate(-25 200 244)"/>
<circle cx="222" cy="300" r="13" fill="#0E3A6B"/><circle cx="290" cy="300" r="13" fill="#0E3A6B"/>
<circle cx="226" cy="296" r="4.5" fill="#fff"/><circle cx="294" cy="296" r="4.5" fill="#fff"/>
<path d="M236 334 Q256 352 276 334" fill="none" stroke="#0E3A6B" stroke-width="8" stroke-linecap="round"/></g>
<text x="915" y="1443" font-family="Helvetica Neue, Arial" font-weight="700" font-size="17" fill="#e9edf1">night</text><rect x="1040" y="850" width="480" height="660" rx="28" fill="#fff" stroke="#e7eaed" stroke-width="2"/>
<g transform="translate(1130 886) scale(0.5859375)"><rect width="512" height="512" rx="120" fill="#17212B"/><rect x="70" y="92" width="14" height="14" fill="#fff" opacity="0.8"/><rect x="420" y="140" width="14" height="14" fill="#fff" opacity="0.6"/><rect x="400" y="380" width="14" height="14" fill="#fff" opacity="0.7"/><rect x="96" y="330" width="14" height="14" fill="#fff" opacity="0.5"/><rect x="444" y="260" width="14" height="14" fill="#fff" opacity="0.4"/><rect x="269.0" y="58" width="26.5" height="26.5" fill="#0E3A6B"/><rect x="295.0" y="58" width="26.5" height="26.5" fill="#0E3A6B"/><rect x="243.0" y="84" width="26.5" height="26.5" fill="#0E3A6B"/><rect x="269.0" y="84" width="26.5" height="26.5" fill="#2A9EF4"/><rect x="295.0" y="84" width="26.5" height="26.5" fill="#2A9EF4"/><rect x="321.0" y="84" width="26.5" height="26.5" fill="#0E3A6B"/><rect x="243.0" y="110" width="26.5" height="26.5" fill="#0E3A6B"/><rect x="269.0" y="110" width="26.5" height="26.5" fill="#2A9EF4"/><rect x="295.0" y="110" width="26.5" height="26.5" fill="#2A9EF4"/><rect x="321.0" y="110" width="26.5" height="26.5" fill="#0E3A6B"/><rect x="217.0" y="136" width="26.5" height="26.5" fill="#0E3A6B"/><rect x="243.0" y="136" width="26.5" height="26.5" fill="#2A9EF4"/><rect x="269.0" y="136" width="26.5" height="26.5" fill="#FFFFFF"/><rect x="295.0" y="136" width="26.5" height="26.5" fill="#FFFFFF"/><rect x="321.0" y="136" width="26.5" height="26.5" fill="#2A9EF4"/><rect x="347.0" y="136" width="26.5" height="26.5" fill="#0E3A6B"/><rect x="217.0" y="162" width="26.5" height="26.5" fill="#0E3A6B"/><rect x="243.0" y="162" width="26.5" height="26.5" fill="#2A9EF4"/><rect x="269.0" y="162" width="26.5" height="26.5" fill="#7AD7FF"/><rect x="295.0" y="162" width="26.5" height="26.5" fill="#7AD7FF"/><rect x="321.0" y="162" width="26.5" height="26.5" fill="#2A9EF4"/><rect x="347.0" y="162" width="26.5" height="26.5" fill="#0E3A6B"/><rect x="217.0" y="188" width="26.5" height="26.5" fill="#0E3A6B"/><rect x="243.0" y="188" width="26.5" height="26.5" fill="#2A9EF4"/><rect x="269.0" y="188" width="26.5" height="26.5" fill="#7AD7FF"/><rect x="295.0" y="188" width="26.5" height="26.5" fill="#7AD7FF"/><rect x="321.0" y="188" width="26.5" height="26.5" fill="#2A9EF4"/><rect x="347.0" y="188" width="26.5" height="26.5" fill="#0E3A6B"/><rect x="217.0" y="214" width="26.5" height="26.5" fill="#0E3A6B"/><rect x="243.0" y="214" width="26.5" height="26.5" fill="#2A9EF4"/><rect x="269.0" y="214" width="26.5" height="26.5" fill="#FFFFFF"/><rect x="295.0" y="214" width="26.5" height="26.5" fill="#FFFFFF"/><rect x="321.0" y="214" width="26.5" height="26.5" fill="#2A9EF4"/><rect x="347.0" y="214" width="26.5" height="26.5" fill="#0E3A6B"/><rect x="191.0" y="240" width="26.5" height="26.5" fill="#0E3A6B"/><rect x="217.0" y="240" width="26.5" height="26.5" fill="#0E3A6B"/><rect x="243.0" y="240" width="26.5" height="26.5" fill="#2A9EF4"/><rect x="269.0" y="240" width="26.5" height="26.5" fill="#FFFFFF"/><rect x="295.0" y="240" width="26.5" height="26.5" fill="#FFFFFF"/><rect x="321.0" y="240" width="26.5" height="26.5" fill="#2A9EF4"/><rect x="347.0" y="240" width="26.5" height="26.5" fill="#0E3A6B"/><rect x="373.0" y="240" width="26.5" height="26.5" fill="#0E3A6B"/><rect x="165.0" y="266" width="26.5" height="26.5" fill="#0E3A6B"/><rect x="191.0" y="266" width="26.5" height="26.5" fill="#2A9EF4"/><rect x="217.0" y="266" width="26.5" height="26.5" fill="#0E3A6B"/><rect x="243.0" y="266" width="26.5" height="26.5" fill="#2A9EF4"/><rect x="269.0" y="266" width="26.5" height="26.5" fill="#FFFFFF"/><rect x="295.0" y="266" width="26.5" height="26.5" fill="#FFFFFF"/><rect x="321.0" y="266" width="26.5" height="26.5" fill="#2A9EF4"/><rect x="347.0" y="266" width="26.5" height="26.5" fill="#0E3A6B"/><rect x="373.0" y="266" width="26.5" height="26.5" fill="#2A9EF4"/><rect x="399.0" y="266" width="26.5" height="26.5" fill="#0E3A6B"/><rect x="165.0" y="292" width="26.5" height="26.5" fill="#0E3A6B"/><rect x="191.0" y="292" width="26.5" height="26.5" fill="#2A9EF4"/><rect x="217.0" y="292" width="26.5" height="26.5" fill="#2A9EF4"/><rect x="243.0" y="292" width="26.5" height="26.5" fill="#2A9EF4"/><rect x="269.0" y="292" width="26.5" height="26.5" fill="#FFFFFF"/><rect x="295.0" y="292" width="26.5" height="26.5" fill="#FFFFFF"/><rect x="321.0" y="292" width="26.5" height="26.5" fill="#2A9EF4"/><rect x="347.0" y="292" width="26.5" height="26.5" fill="#2A9EF4"/><rect x="373.0" y="292" width="26.5" height="26.5" fill="#2A9EF4"/><rect x="399.0" y="292" width="26.5" height="26.5" fill="#0E3A6B"/><rect x="165.0" y="318" width="26.5" height="26.5" fill="#0E3A6B"/><rect x="191.0" y="318" width="26.5" height="26.5" fill="#0E3A6B"/><rect x="243.0" y="318" width="26.5" height="26.5" fill="#0E3A6B"/><rect x="269.0" y="318" width="26.5" height="26.5" fill="#2A9EF4"/><rect x="295.0" y="318" width="26.5" height="26.5" fill="#2A9EF4"/><rect x="321.0" y="318" width="26.5" height="26.5" fill="#0E3A6B"/><rect x="373.0" y="318" width="26.5" height="26.5" fill="#0E3A6B"/><rect x="399.0" y="318" width="26.5" height="26.5" fill="#0E3A6B"/><rect x="243.0" y="344" width="26.5" height="26.5" fill="#FF7A1A"/><rect x="269.0" y="344" width="26.5" height="26.5" fill="#FFD23F"/><rect x="295.0" y="344" width="26.5" height="26.5" fill="#FFD23F"/><rect x="321.0" y="344" width="26.5" height="26.5" fill="#FF7A1A"/><rect x="269.0" y="370" width="26.5" height="26.5" fill="#FFD23F"/><rect x="295.0" y="370" width="26.5" height="26.5" fill="#FFD23F"/><rect x="243.0" y="396" width="26.5" height="26.5" fill="#FF7A1A"/><rect x="321.0" y="396" width="26.5" height="26.5" fill="#FF7A1A"/><rect x="269.0" y="422" width="26.5" height="26.5" fill="#FF7A1A"/><rect x="295.0" y="422" width="26.5" height="26.5" fill="#FF7A1A"/></g>
<text x="1072" y="1242" font-family="Helvetica Neue, Arial" font-weight="700" font-size="28" fill="#222">6 · Pixel rocket</text>
<text x="1072" y="1280" font-family="Helvetica Neue, Arial" font-size="19" fill="#707579"><tspan x="1072" dy="0">8-bit launch: retro memecoin culture, very</tspan><tspan x="1072" dy="26">crisp when small.</tspan></text>
<rect x="1064" y="1390" width="432" height="92" rx="18" fill="#f1f3f5"/>
<g transform="translate(1082 1408) scale(0.109375)"><rect width="512" height="512" rx="120" fill="#17212B"/><rect x="70" y="92" width="14" height="14" fill="#fff" opacity="0.8"/><rect x="420" y="140" width="14" height="14" fill="#fff" opacity="0.6"/><rect x="400" y="380" width="14" height="14" fill="#fff" opacity="0.7"/><rect x="96" y="330" width="14" height="14" fill="#fff" opacity="0.5"/><rect x="444" y="260" width="14" height="14" fill="#fff" opacity="0.4"/><rect x="269.0" y="58" width="26.5" height="26.5" fill="#0E3A6B"/><rect x="295.0" y="58" width="26.5" height="26.5" fill="#0E3A6B"/><rect x="243.0" y="84" width="26.5" height="26.5" fill="#0E3A6B"/><rect x="269.0" y="84" width="26.5" height="26.5" fill="#2A9EF4"/><rect x="295.0" y="84" width="26.5" height="26.5" fill="#2A9EF4"/><rect x="321.0" y="84" width="26.5" height="26.5" fill="#0E3A6B"/><rect x="243.0" y="110" width="26.5" height="26.5" fill="#0E3A6B"/><rect x="269.0" y="110" width="26.5" height="26.5" fill="#2A9EF4"/><rect x="295.0" y="110" width="26.5" height="26.5" fill="#2A9EF4"/><rect x="321.0" y="110" width="26.5" height="26.5" fill="#0E3A6B"/><rect x="217.0" y="136" width="26.5" height="26.5" fill="#0E3A6B"/><rect x="243.0" y="136" width="26.5" height="26.5" fill="#2A9EF4"/><rect x="269.0" y="136" width="26.5" height="26.5" fill="#FFFFFF"/><rect x="295.0" y="136" width="26.5" height="26.5" fill="#FFFFFF"/><rect x="321.0" y="136" width="26.5" height="26.5" fill="#2A9EF4"/><rect x="347.0" y="136" width="26.5" height="26.5" fill="#0E3A6B"/><rect x="217.0" y="162" width="26.5" height="26.5" fill="#0E3A6B"/><rect x="243.0" y="162" width="26.5" height="26.5" fill="#2A9EF4"/><rect x="269.0" y="162" width="26.5" height="26.5" fill="#7AD7FF"/><rect x="295.0" y="162" width="26.5" height="26.5" fill="#7AD7FF"/><rect x="321.0" y="162" width="26.5" height="26.5" fill="#2A9EF4"/><rect x="347.0" y="162" width="26.5" height="26.5" fill="#0E3A6B"/><rect x="217.0" y="188" width="26.5" height="26.5" fill="#0E3A6B"/><rect x="243.0" y="188" width="26.5" height="26.5" fill="#2A9EF4"/><rect x="269.0" y="188" width="26.5" height="26.5" fill="#7AD7FF"/><rect x="295.0" y="188" width="26.5" height="26.5" fill="#7AD7FF"/><rect x="321.0" y="188" width="26.5" height="26.5" fill="#2A9EF4"/><rect x="347.0" y="188" width="26.5" height="26.5" fill="#0E3A6B"/><rect x="217.0" y="214" width="26.5" height="26.5" fill="#0E3A6B"/><rect x="243.0" y="214" width="26.5" height="26.5" fill="#2A9EF4"/><rect x="269.0" y="214" width="26.5" height="26.5" fill="#FFFFFF"/><rect x="295.0" y="214" width="26.5" height="26.5" fill="#FFFFFF"/><rect x="321.0" y="214" width="26.5" height="26.5" fill="#2A9EF4"/><rect x="347.0" y="214" width="26.5" height="26.5" fill="#0E3A6B"/><rect x="191.0" y="240" width="26.5" height="26.5" fill="#0E3A6B"/><rect x="217.0" y="240" width="26.5" height="26.5" fill="#0E3A6B"/><rect x="243.0" y="240" width="26.5" height="26.5" fill="#2A9EF4"/><rect x="269.0" y="240" width="26.5" height="26.5" fill="#FFFFFF"/><rect x="295.0" y="240" width="26.5" height="26.5" fill="#FFFFFF"/><rect x="321.0" y="240" width="26.5" height="26.5" fill="#2A9EF4"/><rect x="347.0" y="240" width="26.5" height="26.5" fill="#0E3A6B"/><rect x="373.0" y="240" width="26.5" height="26.5" fill="#0E3A6B"/><rect x="165.0" y="266" width="26.5" height="26.5" fill="#0E3A6B"/><rect x="191.0" y="266" width="26.5" height="26.5" fill="#2A9EF4"/><rect x="217.0" y="266" width="26.5" height="26.5" fill="#0E3A6B"/><rect x="243.0" y="266" width="26.5" height="26.5" fill="#2A9EF4"/><rect x="269.0" y="266" width="26.5" height="26.5" fill="#FFFFFF"/><rect x="295.0" y="266" width="26.5" height="26.5" fill="#FFFFFF"/><rect x="321.0" y="266" width="26.5" height="26.5" fill="#2A9EF4"/><rect x="347.0" y="266" width="26.5" height="26.5" fill="#0E3A6B"/><rect x="373.0" y="266" width="26.5" height="26.5" fill="#2A9EF4"/><rect x="399.0" y="266" width="26.5" height="26.5" fill="#0E3A6B"/><rect x="165.0" y="292" width="26.5" height="26.5" fill="#0E3A6B"/><rect x="191.0" y="292" width="26.5" height="26.5" fill="#2A9EF4"/><rect x="217.0" y="292" width="26.5" height="26.5" fill="#2A9EF4"/><rect x="243.0" y="292" width="26.5" height="26.5" fill="#2A9EF4"/><rect x="269.0" y="292" width="26.5" height="26.5" fill="#FFFFFF"/><rect x="295.0" y="292" width="26.5" height="26.5" fill="#FFFFFF"/><rect x="321.0" y="292" width="26.5" height="26.5" fill="#2A9EF4"/><rect x="347.0" y="292" width="26.5" height="26.5" fill="#2A9EF4"/><rect x="373.0" y="292" width="26.5" height="26.5" fill="#2A9EF4"/><rect x="399.0" y="292" width="26.5" height="26.5" fill="#0E3A6B"/><rect x="165.0" y="318" width="26.5" height="26.5" fill="#0E3A6B"/><rect x="191.0" y="318" width="26.5" height="26.5" fill="#0E3A6B"/><rect x="243.0" y="318" width="26.5" height="26.5" fill="#0E3A6B"/><rect x="269.0" y="318" width="26.5" height="26.5" fill="#2A9EF4"/><rect x="295.0" y="318" width="26.5" height="26.5" fill="#2A9EF4"/><rect x="321.0" y="318" width="26.5" height="26.5" fill="#0E3A6B"/><rect x="373.0" y="318" width="26.5" height="26.5" fill="#0E3A6B"/><rect x="399.0" y="318" width="26.5" height="26.5" fill="#0E3A6B"/><rect x="243.0" y="344" width="26.5" height="26.5" fill="#FF7A1A"/><rect x="269.0" y="344" width="26.5" height="26.5" fill="#FFD23F"/><rect x="295.0" y="344" width="26.5" height="26.5" fill="#FFD23F"/><rect x="321.0" y="344" width="26.5" height="26.5" fill="#FF7A1A"/><rect x="269.0" y="370" width="26.5" height="26.5" fill="#FFD23F"/><rect x="295.0" y="370" width="26.5" height="26.5" fill="#FFD23F"/><rect x="243.0" y="396" width="26.5" height="26.5" fill="#FF7A1A"/><rect x="321.0" y="396" width="26.5" height="26.5" fill="#FF7A1A"/><rect x="269.0" y="422" width="26.5" height="26.5" fill="#FF7A1A"/><rect x="295.0" y="422" width="26.5" height="26.5" fill="#FF7A1A"/></g>
<text x="1152" y="1447" font-family="Helvetica Neue, Arial" font-weight="700" font-size="30" fill="#222">ongram<tspan fill="#707579">.fun</tspan></text>
<rect x="1370" y="1415" width="108" height="42" rx="21" fill="#17212B"/>
<g transform="translate(1375 1419) scale(0.06640625)"><rect width="512" height="512" rx="120" fill="#17212B"/><rect x="70" y="92" width="14" height="14" fill="#fff" opacity="0.8"/><rect x="420" y="140" width="14" height="14" fill="#fff" opacity="0.6"/><rect x="400" y="380" width="14" height="14" fill="#fff" opacity="0.7"/><rect x="96" y="330" width="14" height="14" fill="#fff" opacity="0.5"/><rect x="444" y="260" width="14" height="14" fill="#fff" opacity="0.4"/><rect x="269.0" y="58" width="26.5" height="26.5" fill="#0E3A6B"/><rect x="295.0" y="58" width="26.5" height="26.5" fill="#0E3A6B"/><rect x="243.0" y="84" width="26.5" height="26.5" fill="#0E3A6B"/><rect x="269.0" y="84" width="26.5" height="26.5" fill="#2A9EF4"/><rect x="295.0" y="84" width="26.5" height="26.5" fill="#2A9EF4"/><rect x="321.0" y="84" width="26.5" height="26.5" fill="#0E3A6B"/><rect x="243.0" y="110" width="26.5" height="26.5" fill="#0E3A6B"/><rect x="269.0" y="110" width="26.5" height="26.5" fill="#2A9EF4"/><rect x="295.0" y="110" width="26.5" height="26.5" fill="#2A9EF4"/><rect x="321.0" y="110" width="26.5" height="26.5" fill="#0E3A6B"/><rect x="217.0" y="136" width="26.5" height="26.5" fill="#0E3A6B"/><rect x="243.0" y="136" width="26.5" height="26.5" fill="#2A9EF4"/><rect x="269.0" y="136" width="26.5" height="26.5" fill="#FFFFFF"/><rect x="295.0" y="136" width="26.5" height="26.5" fill="#FFFFFF"/><rect x="321.0" y="136" width="26.5" height="26.5" fill="#2A9EF4"/><rect x="347.0" y="136" width="26.5" height="26.5" fill="#0E3A6B"/><rect x="217.0" y="162" width="26.5" height="26.5" fill="#0E3A6B"/><rect x="243.0" y="162" width="26.5" height="26.5" fill="#2A9EF4"/><rect x="269.0" y="162" width="26.5" height="26.5" fill="#7AD7FF"/><rect x="295.0" y="162" width="26.5" height="26.5" fill="#7AD7FF"/><rect x="321.0" y="162" width="26.5" height="26.5" fill="#2A9EF4"/><rect x="347.0" y="162" width="26.5" height="26.5" fill="#0E3A6B"/><rect x="217.0" y="188" width="26.5" height="26.5" fill="#0E3A6B"/><rect x="243.0" y="188" width="26.5" height="26.5" fill="#2A9EF4"/><rect x="269.0" y="188" width="26.5" height="26.5" fill="#7AD7FF"/><rect x="295.0" y="188" width="26.5" height="26.5" fill="#7AD7FF"/><rect x="321.0" y="188" width="26.5" height="26.5" fill="#2A9EF4"/><rect x="347.0" y="188" width="26.5" height="26.5" fill="#0E3A6B"/><rect x="217.0" y="214" width="26.5" height="26.5" fill="#0E3A6B"/><rect x="243.0" y="214" width="26.5" height="26.5" fill="#2A9EF4"/><rect x="269.0" y="214" width="26.5" height="26.5" fill="#FFFFFF"/><rect x="295.0" y="214" width="26.5" height="26.5" fill="#FFFFFF"/><rect x="321.0" y="214" width="26.5" height="26.5" fill="#2A9EF4"/><rect x="347.0" y="214" width="26.5" height="26.5" fill="#0E3A6B"/><rect x="191.0" y="240" width="26.5" height="26.5" fill="#0E3A6B"/><rect x="217.0" y="240" width="26.5" height="26.5" fill="#0E3A6B"/><rect x="243.0" y="240" width="26.5" height="26.5" fill="#2A9EF4"/><rect x="269.0" y="240" width="26.5" height="26.5" fill="#FFFFFF"/><rect x="295.0" y="240" width="26.5" height="26.5" fill="#FFFFFF"/><rect x="321.0" y="240" width="26.5" height="26.5" fill="#2A9EF4"/><rect x="347.0" y="240" width="26.5" height="26.5" fill="#0E3A6B"/><rect x="373.0" y="240" width="26.5" height="26.5" fill="#0E3A6B"/><rect x="165.0" y="266" width="26.5" height="26.5" fill="#0E3A6B"/><rect x="191.0" y="266" width="26.5" height="26.5" fill="#2A9EF4"/><rect x="217.0" y="266" width="26.5" height="26.5" fill="#0E3A6B"/><rect x="243.0" y="266" width="26.5" height="26.5" fill="#2A9EF4"/><rect x="269.0" y="266" width="26.5" height="26.5" fill="#FFFFFF"/><rect x="295.0" y="266" width="26.5" height="26.5" fill="#FFFFFF"/><rect x="321.0" y="266" width="26.5" height="26.5" fill="#2A9EF4"/><rect x="347.0" y="266" width="26.5" height="26.5" fill="#0E3A6B"/><rect x="373.0" y="266" width="26.5" height="26.5" fill="#2A9EF4"/><rect x="399.0" y="266" width="26.5" height="26.5" fill="#0E3A6B"/><rect x="165.0" y="292" width="26.5" height="26.5" fill="#0E3A6B"/><rect x="191.0" y="292" width="26.5" height="26.5" fill="#2A9EF4"/><rect x="217.0" y="292" width="26.5" height="26.5" fill="#2A9EF4"/><rect x="243.0" y="292" width="26.5" height="26.5" fill="#2A9EF4"/><rect x="269.0" y="292" width="26.5" height="26.5" fill="#FFFFFF"/><rect x="295.0" y="292" width="26.5" height="26.5" fill="#FFFFFF"/><rect x="321.0" y="292" width="26.5" height="26.5" fill="#2A9EF4"/><rect x="347.0" y="292" width="26.5" height="26.5" fill="#2A9EF4"/><rect x="373.0" y="292" width="26.5" height="26.5" fill="#2A9EF4"/><rect x="399.0" y="292" width="26.5" height="26.5" fill="#0E3A6B"/><rect x="165.0" y="318" width="26.5" height="26.5" fill="#0E3A6B"/><rect x="191.0" y="318" width="26.5" height="26.5" fill="#0E3A6B"/><rect x="243.0" y="318" width="26.5" height="26.5" fill="#0E3A6B"/><rect x="269.0" y="318" width="26.5" height="26.5" fill="#2A9EF4"/><rect x="295.0" y="318" width="26.5" height="26.5" fill="#2A9EF4"/><rect x="321.0" y="318" width="26.5" height="26.5" fill="#0E3A6B"/><rect x="373.0" y="318" width="26.5" height="26.5" fill="#0E3A6B"/><rect x="399.0" y="318" width="26.5" height="26.5" fill="#0E3A6B"/><rect x="243.0" y="344" width="26.5" height="26.5" fill="#FF7A1A"/><rect x="269.0" y="344" width="26.5" height="26.5" fill="#FFD23F"/><rect x="295.0" y="344" width="26.5" height="26.5" fill="#FFD23F"/><rect x="321.0" y="344" width="26.5" height="26.5" fill="#FF7A1A"/><rect x="269.0" y="370" width="26.5" height="26.5" fill="#FFD23F"/><rect x="295.0" y="370" width="26.5" height="26.5" fill="#FFD23F"/><rect x="243.0" y="396" width="26.5" height="26.5" fill="#FF7A1A"/><rect x="321.0" y="396" width="26.5" height="26.5" fill="#FF7A1A"/><rect x="269.0" y="422" width="26.5" height="26.5" fill="#FF7A1A"/><rect x="295.0" y="422" width="26.5" height="26.5" fill="#FF7A1A"/></g>
<text x="1415" y="1443" font-family="Helvetica Neue, Arial" font-weight="700" font-size="17" fill="#e9edf1">night</text>
</svg>